<?xml version="1.0" standalone="no"?>
<!DOCTYPE svg PUBLIC "-//W3C//DTD SVG 20010904//EN"
 "http://www.w3.org/TR/2001/REC-SVG-20010904/DTD/svg10.dtd">
<svg version="1.0" xmlns="http://www.w3.org/2000/svg"
 width="500.000000pt" height="500.000000pt" viewBox="0 0 500.000000 500.000000"
 preserveAspectRatio="xMidYMid meet">

<g transform="translate(0.000000,500.000000) scale(0.100000,-0.100000)"
fill="#000000" stroke="none">
<path d="M2270 2430 l0 -110 70 0 c63 0 70 2 70 20 0 17 -7 20 -50 20 -49 0
-50 1 -50 30 0 29 2 30 45 30 33 0 45 4 45 15 0 11 -12 15 -45 15 -43 0 -45 1
-45 30 0 29 1 30 50 30 38 0 50 4 50 15 0 12 -14 15 -70 15 l-70 0 0 -110z"/>
<path d="M3016 2509 c-54 -64 -26 -171 49 -185 64 -12 115 25 115 83 0 32 -1
33 -40 33 -29 0 -40 -4 -40 -15 0 -9 9 -15 21 -15 15 0 20 -5 17 -22 -2 -18
-11 -24 -36 -26 -46 -5 -72 20 -72 67 0 70 47 101 98 65 12 -8 30 -14 40 -12
15 3 13 7 -10 31 -21 21 -36 27 -72 27 -37 0 -48 -5 -70 -31z"/>
<path d="M2480 2472 c-30 -25 -20 -40 14 -22 14 7 32 10 40 7 19 -8 21 -37 4
-38 -62 -3 -90 -22 -86 -57 4 -36 30 -49 68 -35 16 6 30 7 30 2 0 -5 9 -9 20
-9 18 0 20 7 20 69 0 75 -7 87 -56 97 -21 4 -37 0 -54 -14z m68 -94 c-4 -31
-58 -40 -58 -9 0 18 14 27 48 30 8 1 12 -8 10 -21z"/>
<path d="M2651 2471 c-37 -37 -21 -67 42 -80 44 -9 50 -41 8 -41 -17 0 -31 5
-31 10 0 6 -9 10 -20 10 -26 0 -25 -15 2 -34 43 -30 118 -9 118 33 0 24 -17
37 -59 48 -19 5 -36 14 -39 21 -6 19 27 26 53 12 32 -17 50 -10 33 13 -7 10
-29 20 -49 23 -29 5 -41 2 -58 -15z"/>
<path d="M2800 2484 c0 -3 13 -43 29 -88 30 -84 30 -97 -1 -109 -28 -10 -21
-27 11 -27 39 0 46 11 86 129 33 99 34 102 13 99 -17 -2 -25 -16 -37 -60 -9
-31 -19 -59 -22 -62 -3 -4 -14 23 -24 59 -13 51 -21 65 -36 65 -10 0 -19 -3
-19 -6z"/>
<path d="M3250 2472 c-30 -25 -20 -40 14 -22 28 14 56 8 56 -13 0 -9 -15 -17
-36 -20 -45 -8 -64 -23 -64 -53 0 -33 40 -52 75 -36 15 7 25 8 25 2 0 -6 9
-10 20 -10 18 0 20 7 20 69 0 75 -7 87 -56 97 -21 4 -37 0 -54 -14z m68 -94
c-3 -23 -28 -34 -53 -24 -18 7 -9 33 13 39 36 10 43 7 40 -15z"/>
<path d="M3433 2480 c-28 -12 -39 -48 -20 -67 8 -8 30 -18 48 -22 42 -8 54
-41 15 -41 -14 0 -28 5 -31 10 -8 13 -45 13 -45 1 0 -16 43 -41 70 -41 52 0
90 51 58 78 -7 6 -28 14 -47 19 -19 5 -36 14 -39 21 -6 19 27 26 53 12 32 -17
50 -10 33 12 -16 21 -65 31 -95 18z"/>
</g>
</svg>
